<svg id="Слой_1" data-name="Слой 1" xmlns="http://www.w3.org/2000/svg" viewBox="0 0 387 490"><defs><style>.cls-1{fill:#a0a0a0;}</style></defs><title>цБезымянный-1</title><path class="cls-1" d="M495.86,330H215.14A53.29,53.29,0,0,0,162,383.14V606.86A53.29,53.29,0,0,0,215.14,660H495.86A53.29,53.29,0,0,0,549,606.86V383.14A53.29,53.29,0,0,0,495.86,330ZM355.5,549.5a54,54,0,1,1,54-54A54,54,0,0,1,355.5,549.5Z" transform="translate(-162 -170)"/><path class="cls-1" d="M358,170c-65.17,0-118,42.22-118,94.29V437H476V264.29C476,212.22,423.17,170,358,170Zm70,108.19v106.2H288V278.19h0c0-.17,0-.33,0-.5,0-29.88,31.34-54.09,70-54.09s70,24.22,70,54.09c0,.17,0,.33,0,.5Z" transform="translate(-162 -170)"/></svg>